<svg xmlns="http://www.w3.org/2000/svg" id="product" width="24" height="24" viewBox="0 0 24 24"><title>product</title><polygon points="0 4 0 6 2 6 2 20 4 20 4 6 10 6 10 20 12 20 12 6 14 6 14 4 0 4"/><g><rect width="2" height="2" x="22" y="16"/><rect width="2" height="2" x="18" y="16"/><rect width="2" height="2" x="18" y="20"/><rect width="2" height="2" x="22" y="20"/></g><g><rect width="2" height="2" x="22" y="2"/><rect width="2" height="2" x="18" y="2"/><rect width="2" height="2" x="18" y="6"/><rect width="2" height="2" x="22" y="6"/></g></svg>