<svg xmlns="http://www.w3.org/2000/svg" xmlns:xlink="http://www.w3.org/1999/xlink" width="512" height="512" x="0" y="0" version="1.1" viewBox="0 0 512 512" xml:space="preserve" style="enable-background:new 0 0 512 512"><g id="menu-file"><g><g id="_424131536"><g><defs><path id="SVGID_1_" d="M433.863,149.892c50.95,83.507,11.867,200.226-87.249,260.681 c-99.115,60.469-220.75,41.789-271.687-41.705c-50.938-83.521-11.88-200.185,87.276-260.681 C261.277,47.737,382.939,66.399,433.863,149.892z M180.175,139.172c-81.158,49.517-114.274,143.115-74.002,209.156 c40.272,66.014,138.677,79.41,219.808,29.906c81.13-49.477,114.26-143.115,73.988-209.142 C359.697,103.079,261.277,89.689,180.175,139.172z"/></defs><use xlink:href="#SVGID_1_" style="overflow:visible;fill:#999"/><clipPath id="SVGID_2_"><use xlink:href="#SVGID_1_" style="overflow:visible"/></clipPath><path style="clip-path:url(#SVGID_2_);fill:#999" d="M68.099,357.668c23.243,49.107,69.537,79.479,123.97,87.645 c43.372,6.529,91.904-0.873,138.24-25.018c37.909-19.965,67.241-46.648,87.535-75.49c23.789-33.758,35.464-70.355,37.582-99.744 c2.663-37.089-5.914-71.667-24.336-99.71c-30.07-45.72-86.224-76.009-152.646-72.185c-28.911,1.666-60.265,6.746-93.135,22.587 C114.175,129.974,55.345,202.235,52.45,280.594C51.494,306.049,55.345,331.912,68.099,357.668z"/></g></g><g id="_425309144"><path id="_425034160" d="M148.445,359.648c30.453,0,55.157,24.689,55.157,55.172 c0,30.451-24.704,55.143-55.157,55.143c-30.466,0-55.17-24.691-55.17-55.143C93.274,384.338,117.979,359.648,148.445,359.648z" style="fill:#999"/><path id="_425314424" d="M148.445,376.391c21.222,0,38.414,17.207,38.414,38.43 c0,21.221-17.192,38.4-38.414,38.4s-38.428-17.18-38.428-38.4C110.017,393.598,127.223,376.391,148.445,376.391z" style="fill:#999"/></g><g id="_425027704"><path id="_425304776" d="M244.925,42.037c30.474,0,55.164,24.69,55.164,55.143 c0,30.48-24.69,55.171-55.164,55.171c-30.466,0-55.157-24.69-55.157-55.171C189.768,66.727,214.458,42.037,244.925,42.037z" style="fill:#999"/><path id="_425306072" d="M244.925,58.779c21.216,0,38.421,17.207,38.421,38.428 c0,21.194-17.205,38.401-38.421,38.401c-21.208,0-38.415-17.207-38.415-38.401C206.51,75.985,223.717,58.779,244.925,58.779z" style="fill:#999"/></g><g id="_425028016"><path id="_427514720" d="M435.83,142.354c30.452,0,55.17,24.717,55.17,55.17 c0,30.48-24.718,55.17-55.17,55.17c-30.48,0-55.172-24.69-55.172-55.17C380.658,167.071,405.35,142.354,435.83,142.354z" style="fill:#999"/><circle id="_227268472" cx="435.83" cy="197.524" r="38.428" style="fill:#999"/></g><g id="_425310848"><path id="_425305280" d="M360.258,330.725c30.452,0,55.143,24.691,55.143,55.172 c0,30.451-24.69,55.143-55.143,55.143c-30.48,0-55.172-24.691-55.172-55.143C305.086,355.416,329.777,330.725,360.258,330.725z" style="fill:#999"/><path id="_425303504" d="M360.258,347.469c21.222,0,38.4,17.205,38.4,38.428 c0,21.221-17.179,38.4-38.4,38.4s-38.428-17.18-38.428-38.4C321.83,364.674,339.036,347.469,360.258,347.469z" style="fill:#999"/></g><g id="_425310848_1_"><path id="_425305280_1_" d="M76.157,173.667c30.466,0,55.156,24.69,55.156,55.171 c0,30.454-24.69,55.143-55.156,55.143C45.689,283.98,21,259.291,21,228.837C21,198.357,45.689,173.667,76.157,173.667z" style="fill:#999"/><path id="_425303504_1_" d="M76.157,190.41c21.221,0,38.415,17.206,38.415,38.428 s-17.193,38.401-38.415,38.401c-21.222,0-38.415-17.179-38.415-38.401S54.935,190.41,76.157,190.41z" style="fill:#999"/></g></g></g></svg>