<svg xmlns="http://www.w3.org/2000/svg" id="Ebene_1" width="595.7" height="383" data-name="Ebene 1" viewBox="0 0 595.7 383"><defs><style>.cls-1{fill:#cfc}.cls-2{fill:#fff;fill-rule:evenodd}.cls-3,.cls-4,.cls-5{fill:none}.cls-3,.cls-4{stroke:#231f20;stroke-miterlimit:10;stroke-width:.57px}.cls-4{stroke-linecap:square}</style></defs><title>colored</title><g id="Layer_2" data-name="Layer 2"><rect width="595.7" height="383" class="cls-1"/><g id="Layer_1-2" data-name="Layer 1-2"><path d="M28.63.35H566.57V14.53H28.63Z" class="cls-2"/><path d="M28.88,28.7H566.82V42.87H28.88Z" class="cls-2"/><path d="M28.88,64.12H566.82V78.29H28.88Z" class="cls-2"/><path d="M28.88,92.46H566.82v14.17H28.88Z" class="cls-2"/><path d="M28.63,127.88H566.57v14.17H28.63Z" class="cls-2"/><path d="M28.88,156.22H566.82V170.4H28.88Z" class="cls-2"/><path d="M28.88,191.64H566.82v14.18H28.88Z" class="cls-2"/><path d="M28.63,220H566.57v14.18H28.63Z" class="cls-2"/><path d="M28.63,255.4H566.57v14.18H28.63Z" class="cls-2"/><path d="M28.63,283.74H566.57v14.18H28.63Z" class="cls-2"/><path d="M28.88,319.16H566.82v14.18H28.88Z" class="cls-2"/><path d="M28.88,347.51H566.82v14.17H28.88Z" class="cls-2"/><line x1="28.63" x2="567.07" y1="14.53" y2="14.53" class="cls-3"/><line x1="28.63" x2="567.07" y1="28.7" y2="28.7" class="cls-3"/><rect width="538.43" height="42.51" x="28.63" y=".35" class="cls-4"/><line x1="28.63" x2="567.07" y1="78.29" y2="78.29" class="cls-3"/><line x1="28.63" x2="567.07" y1="92.46" y2="92.46" class="cls-3"/><rect width="538.43" height="42.51" x="28.63" y="64.12" class="cls-4"/><line x1="28.63" x2="567.07" y1="142.05" y2="142.05" class="cls-3"/><line x1="28.63" x2="567.07" y1="156.22" y2="156.22" class="cls-3"/><rect width="538.43" height="42.51" x="28.63" y="127.88" class="cls-4"/><line x1="28.63" x2="567.07" y1="205.82" y2="205.82" class="cls-3"/><line x1="28.63" x2="567.07" y1="219.98" y2="219.98" class="cls-3"/><rect width="538.43" height="42.51" x="28.63" y="191.64" class="cls-4"/><line x1="28.63" x2="567.07" y1="269.57" y2="269.57" class="cls-3"/><line x1="28.63" x2="567.07" y1="283.74" y2="283.74" class="cls-3"/><rect width="538.43" height="42.51" x="28.63" y="255.4" class="cls-4"/><line x1="28.63" x2="567.07" y1="333.33" y2="333.33" class="cls-3"/><line x1="28.63" x2="567.07" y1="347.51" y2="347.51" class="cls-3"/><rect width="538.43" height="42.51" x="28.63" y="319.16" class="cls-4"/><rect width="538.43" height="21.25" x="28.63" y="361.67" class="cls-5"/></g></g></svg>