<svg xmlns="http://www.w3.org/2000/svg" width="539" height="383" viewBox="0 0 539.15 382.96"><defs><style>.cls-1,.cls-2,.cls-3{fill:none}.cls-1,.cls-2{stroke:#231f20;stroke-miterlimit:10;stroke-width:.57px}.cls-2{stroke-linecap:square}</style></defs><title>Elementary19</title><g id="Layer_2" data-name="Layer 2"><g id="Layer_1-2" data-name="Layer 1"><line x1=".28" x2="538.87" y1="14.46" y2="14.46" class="cls-1"/><line x1=".28" x2="538.87" y1="28.63" y2="28.63" class="cls-1"/><rect width="538.58" height="42.52" x=".28" y=".28" class="cls-2"/><line x1=".28" x2="538.87" y1="78.24" y2="78.24" class="cls-1"/><line x1=".28" x2="538.87" y1="92.41" y2="92.41" class="cls-1"/><rect width="538.58" height="42.52" x=".28" y="64.06" class="cls-2"/><line x1=".28" x2="538.87" y1="142.02" y2="142.02" class="cls-1"/><line x1=".28" x2="538.87" y1="156.19" y2="156.19" class="cls-1"/><rect width="538.58" height="42.52" x=".28" y="127.84" class="cls-2"/><line x1=".28" x2="538.87" y1="205.8" y2="205.8" class="cls-1"/><line x1=".28" x2="538.87" y1="219.97" y2="219.97" class="cls-1"/><rect width="538.58" height="42.52" x=".28" y="191.62" class="cls-2"/><line x1=".28" x2="538.87" y1="269.57" y2="269.57" class="cls-1"/><line x1=".28" x2="538.87" y1="283.75" y2="283.75" class="cls-1"/><rect width="538.58" height="42.52" x=".28" y="255.4" class="cls-2"/><line x1=".28" x2="538.87" y1="333.35" y2="333.35" class="cls-1"/><line x1=".28" x2="538.87" y1="347.53" y2="347.53" class="cls-1"/><rect width="538.58" height="42.52" x=".28" y="319.18" class="cls-2"/><rect width="538.58" height="21.26" x=".28" y="361.7" class="cls-3"/></g></g></svg>