<svg xmlns="http://www.w3.org/2000/svg" width="539" height="383" viewBox="0 0 539.15 382.96"><defs><style>.cls-1,.cls-2{fill:none}.cls-1{stroke:#231f20;stroke-miterlimit:10;stroke-width:.57px}</style></defs><title>MusicSheet19</title><g id="Layer_2" data-name="Layer 2"><g id="Layer_1-2" data-name="Layer 1"><rect width="538.58" height="25.51" x=".28" y=".28" class="cls-1"/><line x1=".28" x2="538.87" y1="6.66" y2="6.66" class="cls-1"/><line x1=".28" x2="538.87" y1="13.04" y2="13.04" class="cls-1"/><line x1=".28" x2="538.87" y1="19.42" y2="19.42" class="cls-1"/><rect width="538.58" height="25.51" x=".28" y="64.06" class="cls-1"/><line x1=".28" x2="538.87" y1="70.44" y2="70.44" class="cls-1"/><line x1=".28" x2="538.87" y1="76.82" y2="76.82" class="cls-1"/><line x1=".28" x2="538.87" y1="83.2" y2="83.2" class="cls-1"/><rect width="538.58" height="25.51" x=".28" y="127.84" class="cls-1"/><line x1=".28" x2="538.87" y1="134.22" y2="134.22" class="cls-1"/><line x1=".28" x2="538.87" y1="140.6" y2="140.6" class="cls-1"/><line x1=".28" x2="538.87" y1="146.98" y2="146.98" class="cls-1"/><rect width="538.58" height="25.51" x=".28" y="191.62" class="cls-1"/><line x1=".28" x2="538.87" y1="198" y2="198" class="cls-1"/><line x1=".28" x2="538.87" y1="204.38" y2="204.38" class="cls-1"/><line x1=".28" x2="538.87" y1="210.76" y2="210.76" class="cls-1"/><rect width="538.58" height="25.51" x=".28" y="255.4" class="cls-1"/><line x1=".28" x2="538.87" y1="261.78" y2="261.78" class="cls-1"/><line x1=".28" x2="538.87" y1="268.16" y2="268.16" class="cls-1"/><line x1=".28" x2="538.87" y1="274.54" y2="274.54" class="cls-1"/><rect width="538.58" height="25.51" x=".28" y="319.18" class="cls-1"/><line x1=".28" x2="538.87" y1="325.56" y2="325.56" class="cls-1"/><line x1=".28" x2="538.87" y1="331.94" y2="331.94" class="cls-1"/><line x1=".28" x2="538.87" y1="338.31" y2="338.31" class="cls-1"/><rect width="538.58" height="38.27" x=".28" y="344.69" class="cls-2"/></g></g></svg>