<svg xmlns="http://www.w3.org/2000/svg" xmlns:xlink="http://www.w3.org/1999/xlink" width="512" height="512" x="0" y="0" version="1.1" viewBox="0 0 512 512" xml:space="preserve" style="enable-background:new 0 0 512 512"><g id="menu-pin"><polygon style="fill:#999" points="243.455 256.567 84.567 436.823 264.735 277.995"/><ellipse style="fill:#999" cx="275.27" cy="246.12" rx="127.218" ry="63.609" transform="matrix(0.7071 0.7071 -0.7071 0.7071 254.6584 -122.5582)"/><path style="fill:#999" d="M466.181,175.151L346.238,55.208L226.296,175.151l0.008,0.008c-0.11,0.106-0.224,0.208-0.332,0.317 c-16.561,16.56-3.136,56.835,29.985,89.958c33.121,33.12,73.396,46.545,89.957,29.984c0.108-0.108,0.21-0.222,0.316-0.333 l0.008,0.009L466.181,175.151z"/><ellipse style="fill:#999" cx="406.534" cy="114.855" rx="84.812" ry="42.406" transform="matrix(0.7071 0.7071 -0.7071 0.7071 200.286 -253.8223)"/><linearGradient id="SVGID_1_" x1="84.567" x2="487.94" y1="434.177" y2="434.177" gradientUnits="userSpaceOnUse"><stop offset="0" style="stop-color:#c6c7c8"/><stop offset="1" style="stop-color:#c6c7c8;stop-opacity:0"/></linearGradient><polygon style="fill:url(#SVGID_1_)" points="84.567 436.823 487.939 384.51 357.884 483.844"/></g></svg>