<svg xmlns="http://www.w3.org/2000/svg" id="svg4326" x="0" y="0" version="1.1" viewBox="0 0 120 120" xml:space="preserve" style="enable-background:new 0 0 120 120"><style type="text/css">.st0{fill:none;stroke:#000;stroke-width:3;stroke-miterlimit:10}</style><path id="path4338" d="M36,68.5L18.4,90	c-0.7,0.8-1.1,1.4-1.1,2.4c0,1.6,1.1,2.9,2.6,3.1c0,0,0,0,0.1,0h0.1c0.1,0,10.3,0,10.3,0s2,0,2.9-0.6s2.5-2.6,2.5-2.6l10-12.4"/><path id="path4340" d="M101,24.8l-37.7,34l8.6,9.5	c0,0,25.5-35.4,30.9-42.7C103.2,25,102.1,23.7,101,24.8" class="st0"/><path id="path4344" d="M50.5,85.9	c1.8,2.1,3.1,2.9,4.5,2.8c1.9-0.1,2.8-0.7,4.5-2.5c1.8-1.8,4.7-6.3,4.7-6.3s-29.7-35.2-31-36.4c-0.7-0.7-2.9-0.6-2.9-0.6	s-10.2,0-10.3,0h-0.1c0,0,0,0-0.1,0c-1.5,0.3-2.6,1.6-2.6,3.1c0,1,0.5,1.6,1.1,2.4C18.4,48.5,41.7,75.2,50.5,85.9z" class="st0"/><path id="path4348" d="M91.7,90c0,0-23.4-28.5-32.1-39.2	c-1.8-2.2-3.1-2.9-4.5-2.8c-1.9,0-2.9,0.5-4.5,2.5l-5.4,7l28.6,34.9c0.8,0.9,1.6,2,2.5,2.6s2.9,0.6,2.9,0.6s10.7,0,10.9,0h0.1	c0,0,0,0,0.1,0c1.5-0.3,2.6-1.6,2.6-3.1C92.8,91.4,92.4,90.8,91.7,90"/></svg>