<svg xmlns="http://www.w3.org/2000/svg" xmlns:svg="http://www.w3.org/2000/svg" id="svg2" width="32" height="32" version="1.1"><metadata id="metadata7"/><g id="layer1" transform="translate(0,-1020.3622)"><rect style="fill:#fff;stroke:none" id="rect3063" width="32" height="32" x="0" y="1020.362"/><path style="fill:none;stroke:red;stroke-width:1.80451638;stroke-miterlimit:4;stroke-opacity:1;stroke-dasharray:none;stroke-dashoffset:0" id="path3851" d="m 1.8292941,20.364752 a 11,11 0 1 1 16.2526269,0.09732" transform="matrix(1.1083302,0,0,1.1083302,2.1083302,1027.1455)"/><path style="fill:none;stroke:#08a875;stroke-width:2;stroke-linecap:round;stroke-linejoin:round;stroke-miterlimit:4;stroke-opacity:1;stroke-dasharray:none" id="path3061" d="m 31,1040.3622 -6,-19 -20,22 23,8"/><path style="fill:gray;stroke:none" id="rect3055-4" d="m 0,1020.3622 0,32 32,0 0,-32 z m 15,1 16,2 0,22 -14,6 -16,-2 0,-22 z"/><path style="fill:none;stroke:#000;stroke-width:2;stroke-miterlimit:4;stroke-dasharray:none" id="rect3055" d="M 15,1 31,3 31,25 17,31 1,29 1,7 z" transform="translate(0,1020.3622)"/></g></svg>