<svg xmlns="http://www.w3.org/2000/svg" id="root" version="1.1" viewBox="0 0 16 16"><rect width="9.944" height="1" x="5.585" y="5" fill="#e0a685"/><rect width="9.944" height=".976" x="5.528" y="14" fill="#e0a685"/><rect width="1" height="10" x="5.529" y="5" fill="#e0a685"/><rect width="1" height="9.895" x="14.529" y="5.105" fill="#e0a685"/><rect width="9.944" height="1" x=".529" y="1" fill="#e0a685"/><rect width="9.944" height=".976" x=".528" y="10" fill="#e0a685"/><rect width="1" height="10" x=".529" y="1" fill="#e0a685"/><rect width="1" height="10" x="9.529" y="1" fill="#e0a685"/><path fill="#e0a685" d="m0.52864 2 5 4 1-1-5-4z"/><path fill="#e0a685" d="m9.5286 2 5 4 1-1-5-4z"/><path fill="#e0a685" d="m0.52864 11 5 4 1-1-5-4z"/><path fill="#e0a685" d="m9.5286 11 5 4 1-1-5-4z"/></svg>