<svg xmlns="http://www.w3.org/2000/svg" id="root" version="1.1" viewBox="0 0 16 16"><defs><linearGradient id="a" x1="4.832" x2="7.315" y1="2.981" y2="8.484" gradientTransform="translate(7.2292e-7 .00010801)" gradientUnits="userSpaceOnUse"><stop offset="0" stop-color="silver"/><stop offset="1" stop-color="#4d4d4d"/></linearGradient></defs><rect width="1.047" height="1.473" x="10.537" y="-5.977" fill="#696969" rx="0" transform="matrix(.77454 .63252 -.63252 .77454 0 0)"/><rect width="1.354" height=".808" x="10.384" y="-6.393" fill="#696969" rx=".314" ry=".431" transform="matrix(.77454 .63252 -.63252 .77454 0 0)"/><rect width="1.047" height="1.473" x="-1.783" y="4.084" fill="#696969" rx="0" transform="matrix(-.77454 .63252 .63252 .77454 0 0)"/><rect width="1.354" height=".808" x="-1.936" y="3.668" fill="#696969" rx=".314" ry=".431" transform="matrix(-.77454 .63252 .63252 .77454 0 0)"/><rect width="1.738" height="2" x="7.084" y=".676" fill="#696969" rx="0"/><rect width="2.248" height="1.097" x="6.829" y=".112" fill="#696969" rx=".314" ry=".431"/><circle cx="7.953" cy="8.962" r="6.157" fill="#fff" stroke="url(#a)" stroke-width="1.5"/><path fill="red" fill-rule="evenodd" d="m10.759 5.1131-3.2397 3.5863 0.8486 0.6138z"/><circle cx="7.953" cy="8.962" r=".722" fill="#fff" stroke="#000" stroke-width=".2"/></svg>