<svg xmlns="http://www.w3.org/2000/svg" id="root" version="1.1" viewBox="0 0 16 16"><rect width="3.5" height="12" x=".5" y="1.5" fill="none" stroke="currentColor"/><polygon fill="currentColor" points=".5 3.5 .5 5.5 4 3.5 4 1.5" opacity=".7"/><polygon fill="currentColor" points=".5 7.5 .5 9.5 4 7.5 4 5.5" opacity=".7"/><polygon fill="currentColor" points=".5 11.5 .5 13.5 4 11.5 4 9.5" opacity=".7"/><rect width="3.5" height="12" x="12" y="1.5" fill="none" stroke="currentColor"/><polygon fill="currentColor" points="12 3.5 12 5.5 15.5 3.5 15.5 1.5" opacity=".7"/><polygon fill="currentColor" points="12 7.5 12 9.5 15.5 7.5 15.5 5.5" opacity=".7"/><polygon fill="currentColor" points="12 11.5 12 13.5 15.5 11.5 15.5 9.5" opacity=".7"/><rect width="5" height="5" x="5.5" y="5" fill="none" stroke="currentColor"/></svg>