<svg xmlns="http://www.w3.org/2000/svg" id="root" version="1.1" viewBox="0 0 16 16"><path fill="#707070" d="M 13.179 0.75 H 2.821 c -1.141 0 -2.071 0.931 -2.071 2.071 v 10.357 c 0 1.141 0.931 2.071 2.071 2.071 h 10.357 c 1.141 0 2.071 -0.931 2.071 -2.071 V 2.821 C 15.25 1.681 14.319 0.75 13.179 0.75 M 13.179 1.785 c 0.57 0 1.035 0.466 1.035 1.036 v 10.357 c 0 0.57 -0.465 1.035 -1.035 1.035 H 2.821 c -0.57 0 -1.036 -0.465 -1.036 -1.035 V 2.821 c 0 -0.57 0.465 -1.036 1.036 -1.036 H 13.179"/><rect width="4.854" height="4.094" x="2.676" y="2.967" fill="#707070"/><rect width="2.755" height="4.35" x="2.676" y="8.497" fill="#707070"/><rect width="4.412" height="10.108" x="8.891" y="2.967" fill="#707070"/></svg>